# Blender v2.79 (sub 0) OBJ File: 'bowling_lane.blend'
# www.blender.org
v 35.000000 -0.000000 2.520001
v 35.000000 1.000000 2.520001
v 35.000000 -0.000000 3.500001
v 35.000000 1.000000 3.500001
v -35.000000 -0.000000 2.519993
v -35.000000 0.500000 2.519993
v -35.000000 -0.000000 3.499993
v -35.000000 0.500000 3.499993
v -35.000000 -0.000000 -3.500008
v -35.000000 0.500000 -3.500008
v -35.000000 -0.000000 3.499993
v -35.000000 0.500000 3.499993
v -50.000000 -0.000000 -3.500009
v -50.000000 0.500000 -3.500009
v -50.000000 -0.000000 3.499991
v -50.000000 0.500000 3.499991
v 34.999992 0.500000 -1.749999
v -35.000000 0.500000 -1.750008
v 34.999992 0.500000 1.750001
v -35.000000 0.500000 1.749993
v 34.999992 -0.000000 1.750001
v 34.999992 -0.000000 -1.749999
v -35.000000 -0.000000 -1.750008
v -35.000000 -0.000000 1.749993
v 34.999992 0.499996 2.520001
v -35.000000 0.500004 2.519993
v 34.999992 0.424889 2.512603
v -35.000000 0.424892 2.512595
v 34.999992 0.352665 2.490695
v -35.000000 0.352669 2.490686
v 34.999992 0.286102 2.455117
v -35.000000 0.286110 2.455108
v 34.999992 0.227760 2.407237
v -35.000000 0.227768 2.407229
v 34.999992 0.179882 2.348895
v -35.000000 0.179886 2.348887
v 34.999992 0.144302 2.282334
v -35.000000 0.144310 2.282326
v 34.999992 0.122395 2.210111
v -35.000000 0.122402 2.210102
v 34.999992 0.114998 2.135001
v -35.000000 0.115002 2.134993
v 34.999992 0.122395 2.059891
v -35.000000 0.122402 2.059883
v 34.999992 0.144302 1.987668
v -35.000000 0.144310 1.987659
v 34.999992 0.179882 1.921106
v -35.000000 0.179886 1.921098
v 34.999992 0.227760 1.862765
v -35.000000 0.227768 1.862756
v 34.999992 0.286102 1.814885
v -35.000000 0.286110 1.814877
v 34.999992 0.352665 1.779307
v -35.000000 0.352669 1.779299
v 34.999992 0.424889 1.757398
v -35.000000 0.424892 1.757390
v 34.999992 0.499996 1.750001
v -35.000000 0.500004 1.749992
v 34.999992 0.499996 -1.749999
v -35.000000 0.500004 -1.750008
v 34.999992 0.424889 -1.757397
v -35.000000 0.424892 -1.757405
v 34.999992 0.352665 -1.779305
v -35.000000 0.352669 -1.779314
v 34.999992 0.286102 -1.814883
v -35.000000 0.286110 -1.814892
v 34.999992 0.227760 -1.862763
v -35.000000 0.227768 -1.862771
v 34.999992 0.179882 -1.921104
v -35.000000 0.179886 -1.921113
v 34.999992 0.144302 -1.987666
v -35.000000 0.144310 -1.987675
v 34.999992 0.122395 -2.059889
v -35.000000 0.122402 -2.059897
v 34.999992 0.114998 -2.134999
v -35.000000 0.115002 -2.135008
v 34.999992 0.122395 -2.210109
v -35.000000 0.122402 -2.210117
v 34.999992 0.144302 -2.282332
v -35.000000 0.144310 -2.282341
v 34.999992 0.179882 -2.348894
v -35.000000 0.179886 -2.348902
v 34.999992 0.227760 -2.407235
v -35.000000 0.227768 -2.407244
v 34.999992 0.286102 -2.455115
v -35.000000 0.286110 -2.455123
v 34.999992 0.352665 -2.490693
v -35.000000 0.352669 -2.490702
v 34.999992 0.424889 -2.512601
v -35.000000 0.424892 -2.512609
v 34.999992 0.499996 -2.519999
v -35.000000 0.500004 -2.520007
v -33.000000 -0.000000 3.499993
v -33.000000 1.000000 3.499993
v -33.000000 -0.000000 2.519993
v -33.000000 1.000000 2.519993
v -33.285713 0.950916 3.499993
v -33.571426 0.898310 3.499993
v -33.857140 0.835714 3.499993
v -34.142853 0.764286 3.499993
v -34.428566 0.684024 3.499993
v -34.714279 0.593773 3.499993
v -33.285713 -0.000000 2.519993
v -33.571426 -0.000000 2.519993
v -33.857140 -0.000000 2.519993
v -34.142853 -0.000000 2.519993
v -34.428566 -0.000000 2.519993
v -34.714279 -0.000000 2.519993
v -34.714287 -0.000000 3.499993
v -34.428574 -0.000000 3.499993
v -34.142860 -0.000000 3.499993
v -33.857147 -0.000000 3.499993
v -33.571434 -0.000000 3.499993
v -33.285721 -0.000000 3.499993
v -34.714287 0.593773 2.519993
v -34.428574 0.684024 2.519993
v -34.142860 0.764286 2.519993
v -33.857147 0.835714 2.519993
v -33.571434 0.898310 2.519993
v -33.285721 0.950916 2.519993
v 35.000000 -0.000000 -3.499999
v 35.000000 1.000000 -3.499999
v 35.000000 -0.000000 -2.519999
v 35.000000 1.000000 -2.519999
v -35.000000 -0.000000 -3.500007
v -35.000000 0.500000 -3.500008
v -35.000000 -0.000000 -2.520007
v -35.000000 0.500000 -2.520007
v -33.000000 -0.000000 -2.520007
v -33.000000 1.000000 -2.520007
v -33.000000 -0.000000 -3.500007
v -33.000000 1.000000 -3.500007
v -33.285713 0.950916 -2.520007
v -33.571426 0.898310 -2.520007
v -33.857140 0.835714 -2.520007
v -34.142853 0.764286 -2.520007
v -34.428566 0.684024 -2.520007
v -34.714279 0.593773 -2.520007
v -33.285713 -0.000000 -3.500007
v -33.571426 -0.000000 -3.500007
v -33.857140 -0.000000 -3.500007
v -34.142853 -0.000000 -3.500007
v -34.428566 -0.000000 -3.500007
v -34.714279 -0.000000 -3.500007
v -34.714287 -0.000000 -2.520007
v -34.428574 -0.000000 -2.520007
v -34.142860 -0.000000 -2.520007
v -33.857147 -0.000000 -2.520007
v -33.571434 -0.000000 -2.520007
v -33.285721 -0.000000 -2.520007
v -34.714287 0.593773 -3.500007
v -34.428574 0.684024 -3.500007
v -34.142860 0.764286 -3.500007
v -33.857147 0.835714 -3.500007
v -33.571434 0.898310 -3.500007
v -33.285721 0.950916 -3.500007
vt 0.882467 0.164580
vt 0.896461 0.360502
vt 0.896461 0.164580
vt 0.926290 0.011319
vt 0.942156 0.487312
vt 0.942156 0.011319
vt 0.882467 0.360502
vt 0.896461 0.164580
vt 0.896461 0.360502
vt 0.926290 0.487312
vt 0.942156 0.011319
vt 0.942156 0.487312
vt 0.786560 0.016444
vt 0.982482 0.436277
vt 0.786560 0.436277
vt 0.888315 0.010027
vt 0.937042 0.984573
vt 0.888315 0.984573
vt 0.937043 0.010027
vt 0.937043 0.010027
vt 0.888315 0.984573
vt 0.882467 0.360502
vt 0.926290 0.487312
vt 0.882467 0.164580
vt 0.926290 0.011319
vt 0.982483 0.016444
vt 0.937042 0.984573
vt 0.888315 0.010027
vt 0.197495 0.017683
vt 0.204442 0.013713
vt 0.197495 0.013713
vt 0.211389 0.041501
vt 0.197495 0.986287
vt 0.197495 0.041501
vt 0.042680 0.981249
vt 0.029093 0.038473
vt 0.042680 0.038473
vt 0.737870 0.447933
vt 0.771305 0.982893
vt 0.771305 0.447933
vt 0.704435 0.982893
vt 0.737870 0.982893
vt 0.671000 0.447933
vt 0.704435 0.447933
vt 0.637565 0.447933
vt 0.671000 0.982893
vt 0.604130 0.447933
vt 0.637565 0.982893
vt 0.570695 0.447933
vt 0.604130 0.982893
vt 0.537260 0.447933
vt 0.570695 0.982893
vt 0.503825 0.447933
vt 0.537260 0.982893
vt 0.470390 0.447933
vt 0.503825 0.982893
vt 0.436955 0.447933
vt 0.470390 0.982893
vt 0.403520 0.447933
vt 0.436955 0.982893
vt 0.370085 0.447933
vt 0.403520 0.982893
vt 0.336650 0.447933
vt 0.370085 0.982893
vt 0.303215 0.447933
vt 0.336650 0.982893
vt 0.269780 0.447933
vt 0.303215 0.982893
vt 0.236345 0.447933
vt 0.269780 0.982893
vt 0.771305 0.447933
vt 0.737870 0.982893
vt 0.771305 0.982893
vt 0.704435 0.447933
vt 0.737870 0.447933
vt 0.671000 0.447933
vt 0.704435 0.982893
vt 0.637565 0.447933
vt 0.671000 0.982893
vt 0.604130 0.982893
vt 0.637565 0.982893
vt 0.604130 0.447933
vt 0.570695 0.982893
vt 0.537260 0.447933
vt 0.570695 0.447933
vt 0.503825 0.447933
vt 0.537260 0.982893
vt 0.470390 0.447933
vt 0.503825 0.982893
vt 0.436955 0.447933
vt 0.470390 0.982893
vt 0.403520 0.447933
vt 0.436955 0.982893
vt 0.370085 0.447933
vt 0.403520 0.982893
vt 0.336650 0.447933
vt 0.370085 0.982893
vt 0.303215 0.447933
vt 0.336650 0.982893
vt 0.269780 0.447933
vt 0.303215 0.982893
vt 0.236345 0.447933
vt 0.269780 0.982893
vt 0.042680 0.034511
vt 0.029093 0.034511
vt 0.210707 0.037531
vt 0.197495 0.037531
vt 0.211389 0.986287
vt 0.197495 0.041501
vt 0.197495 0.986287
vt 0.204442 0.013713
vt 0.197495 0.017683
vt 0.197495 0.013713
vt 0.205745 0.017683
vt 0.197495 0.021652
vt 0.206999 0.021652
vt 0.197495 0.025622
vt 0.208114 0.025622
vt 0.197495 0.029592
vt 0.209106 0.029592
vt 0.197495 0.033561
vt 0.209976 0.033561
vt 0.042680 0.010744
vt 0.029093 0.014705
vt 0.029093 0.010744
vt 0.042680 0.014705
vt 0.029093 0.018667
vt 0.042680 0.018667
vt 0.029093 0.022628
vt 0.042680 0.022628
vt 0.029093 0.026589
vt 0.042680 0.026589
vt 0.029093 0.030550
vt 0.042680 0.030550
vt 0.210707 0.037531
vt 0.197495 0.037531
vt 0.209976 0.033561
vt 0.197495 0.033561
vt 0.209106 0.029592
vt 0.197495 0.029592
vt 0.208114 0.025622
vt 0.197495 0.025622
vt 0.206999 0.021652
vt 0.197495 0.021652
vt 0.205745 0.017683
vt 0.197495 0.017683
vt 0.204442 0.013713
vt 0.197495 0.013713
vt 0.211389 0.041501
vt 0.197495 0.986287
vt 0.197495 0.041501
vt 0.042680 0.981249
vt 0.029093 0.038473
vt 0.042680 0.038473
vt 0.042680 0.034511
vt 0.029093 0.034511
vt 0.210707 0.037531
vt 0.197495 0.037531
vt 0.211389 0.986287
vt 0.197495 0.041501
vt 0.197495 0.986287
vt 0.204442 0.013713
vt 0.197495 0.017683
vt 0.197495 0.013713
vt 0.205745 0.017683
vt 0.197495 0.021652
vt 0.206999 0.021652
vt 0.197495 0.025622
vt 0.208114 0.025622
vt 0.197495 0.029592
vt 0.209106 0.029592
vt 0.197495 0.033561
vt 0.209976 0.033561
vt 0.042680 0.010744
vt 0.029093 0.014705
vt 0.029093 0.010744
vt 0.042680 0.014705
vt 0.029093 0.018667
vt 0.042680 0.018667
vt 0.029093 0.022628
vt 0.042680 0.022628
vt 0.029093 0.026589
vt 0.042680 0.026589
vt 0.029093 0.030550
vt 0.042680 0.030550
vt 0.210707 0.037531
vt 0.197495 0.037531
vt 0.209976 0.033561
vt 0.197495 0.033561
vt 0.209106 0.029592
vt 0.197495 0.029592
vt 0.208114 0.025622
vt 0.197495 0.025622
vt 0.206999 0.021652
vt 0.197495 0.021652
vt 0.205745 0.017683
vt 0.211389 0.986287
vt 0.029093 0.981249
vt 0.236345 0.982893
vt 0.236345 0.982893
vt 0.211389 0.041501
vt 0.211389 0.986287
vt 0.029093 0.981249
vt 0.211389 0.041501
vn 1.0000 0.0000 0.0000
vn -0.0000 0.0000 1.0000
vn -1.0000 0.0000 0.0000
vn 0.0000 0.0000 -1.0000
vn 0.0000 1.0000 0.0000
vn -0.1994 0.6077 0.7687
vn -0.0616 0.7226 -0.6885
vn 0.0000 0.7071 0.7071
vn -0.0616 0.7226 0.6885
vn 0.0000 0.1951 -0.9808
vn 0.0000 0.0980 -0.9952
vn 0.0000 0.3827 -0.9239
vn 0.0000 0.5556 -0.8314
vn 0.0000 0.7071 -0.7071
vn 0.0000 0.8314 -0.5556
vn 0.0000 0.9239 -0.3827
vn 0.0000 0.9808 -0.1951
vn 0.0000 0.9239 -0.3826
vn 0.0000 0.9808 0.1951
vn 0.0000 0.9239 0.3827
vn 0.0000 0.8314 0.5556
vn 0.0000 0.9239 0.3826
vn 0.0000 0.5556 0.8314
vn 0.0000 0.3827 0.9239
vn 0.0000 0.1951 0.9808
vn 0.0000 0.0980 0.9952
vn -0.1241 0.6975 0.7057
vn -0.1241 0.6975 -0.7057
vn -0.1994 0.6077 -0.7687
vn -0.2171 0.6742 -0.7058
vn -0.2031 0.6810 -0.7035
vn -0.1822 0.6865 -0.7038
vn -0.1622 0.6916 -0.7038
vn -0.1404 0.6968 -0.7033
vn -0.2171 0.6742 0.7058
vn -0.2031 0.6810 0.7035
vn -0.1822 0.6865 0.7038
vn -0.1622 0.6916 0.7038
vn -0.1404 0.6968 0.7033
s off
f 10/1/1 11/2/1 9/3/1
f 12/4/2 15/5/2 11/6/2
f 16/7/3 13/8/3 15/9/3
f 14/10/4 9/11/4 13/12/4
f 12/13/5 14/14/5 16/15/5
f 18/16/5 19/17/5 17/18/5
f 19/17/4 24/19/4 20/20/4
f 18/16/2 22/21/2 17/18/2
f 10/1/1 12/22/1 11/2/1
f 12/4/2 16/23/2 15/5/2
f 16/7/3 14/24/3 13/8/3
f 14/10/4 10/25/4 9/11/4
f 12/13/5 10/26/5 14/14/5
f 18/16/5 20/20/5 19/17/5
f 19/17/4 21/27/4 24/19/4
f 18/16/2 23/28/2 22/21/2
s 1
f 109/29/2 8/30/6 7/31/2
f 96/32/7 1/33/4 95/34/4
f 4/35/8 96/36/7 94/37/9
f 27/38/10 26/39/11 25/40/11
f 27/38/10 30/41/12 28/42/10
f 31/43/13 30/41/12 29/44/12
f 33/45/14 32/46/13 31/43/13
f 35/47/15 34/48/14 33/45/14
f 37/49/16 36/50/15 35/47/15
f 39/51/17 38/52/18 37/49/16
f 41/53/5 40/54/17 39/51/17
f 43/55/19 42/56/5 41/53/5
f 45/57/20 44/58/19 43/55/19
f 47/59/21 46/60/22 45/57/20
f 49/61/8 48/62/21 47/59/21
f 51/63/23 50/64/8 49/61/8
f 53/65/24 52/66/23 51/63/23
f 55/67/25 54/68/24 53/65/24
f 57/69/26 56/70/25 55/67/25
f 59/71/11 62/72/10 60/73/11
f 63/74/12 62/72/10 61/75/10
f 65/76/13 64/77/12 63/74/12
f 67/78/14 66/79/13 65/76/13
f 67/78/14 70/80/15 68/81/14
f 69/82/15 72/83/18 70/80/15
f 73/84/17 72/83/18 71/85/16
f 75/86/5 74/87/17 73/84/17
f 77/88/19 76/89/5 75/86/5
f 79/90/20 78/91/19 77/88/19
f 81/92/21 80/93/22 79/90/20
f 83/94/8 82/95/21 81/92/21
f 85/96/23 84/97/8 83/94/8
f 87/98/24 86/99/23 85/96/23
f 89/100/25 88/101/24 87/98/24
f 91/102/26 90/103/25 89/100/25
f 97/104/27 96/36/7 120/105/28
f 120/106/28 95/34/4 103/107/4
f 4/108/8 93/109/2 3/110/2
f 6/111/29 108/112/4 5/113/4
f 115/114/30 107/115/4 108/112/4
f 116/116/31 106/117/4 107/115/4
f 117/118/32 105/119/4 106/117/4
f 118/120/33 104/121/4 105/119/4
f 119/122/34 103/107/4 104/121/4
f 8/123/6 115/124/30 6/125/29
f 102/126/35 116/127/31 115/124/30
f 101/128/36 117/129/32 116/127/31
f 100/130/37 118/131/33 117/129/32
f 99/132/38 119/133/34 118/131/33
f 98/134/39 120/105/28 119/133/34
f 93/109/2 97/135/27 114/136/2
f 114/136/2 98/137/39 113/138/2
f 113/138/2 99/139/38 112/140/2
f 112/140/2 100/141/37 111/142/2
f 111/142/2 101/143/36 110/144/2
f 110/144/2 102/145/35 109/29/2
f 145/146/2 128/147/6 127/148/2
f 132/149/7 121/150/4 131/151/4
f 124/152/8 132/153/7 130/154/9
f 133/155/27 132/153/7 156/156/28
f 156/157/28 131/151/4 139/158/4
f 124/159/8 129/160/2 123/161/2
f 126/162/29 144/163/4 125/164/4
f 151/165/30 143/166/4 144/163/4
f 152/167/31 142/168/4 143/166/4
f 153/169/32 141/170/4 142/168/4
f 154/171/33 140/172/4 141/170/4
f 155/173/34 139/158/4 140/172/4
f 128/174/6 151/175/30 126/176/29
f 138/177/35 152/178/31 151/175/30
f 137/179/36 153/180/32 152/178/31
f 136/181/37 154/182/33 153/180/32
f 135/183/38 155/184/34 154/182/33
f 134/185/39 156/156/28 155/184/34
f 129/160/2 133/186/27 150/187/2
f 150/187/2 134/188/39 149/189/2
f 149/189/2 135/190/38 148/191/2
f 148/191/2 136/192/37 147/193/2
f 147/193/2 137/194/36 146/195/2
f 146/195/2 138/196/35 145/146/2
f 109/29/2 102/145/35 8/30/6
f 96/32/7 2/197/14 1/33/4
f 4/35/8 2/198/14 96/36/7
f 27/38/10 28/42/10 26/39/11
f 27/38/10 29/44/12 30/41/12
f 31/43/13 32/46/13 30/41/12
f 33/45/14 34/48/14 32/46/13
f 35/47/15 36/50/15 34/48/14
f 37/49/16 38/52/18 36/50/15
f 39/51/17 40/54/17 38/52/18
f 41/53/5 42/56/5 40/54/17
f 43/55/19 44/58/19 42/56/5
f 45/57/20 46/60/22 44/58/19
f 47/59/21 48/62/21 46/60/22
f 49/61/8 50/64/8 48/62/21
f 51/63/23 52/66/23 50/64/8
f 53/65/24 54/68/24 52/66/23
f 55/67/25 56/70/25 54/68/24
f 57/69/26 58/199/26 56/70/25
f 59/71/11 61/75/10 62/72/10
f 63/74/12 64/77/12 62/72/10
f 65/76/13 66/79/13 64/77/12
f 67/78/14 68/81/14 66/79/13
f 67/78/14 69/82/15 70/80/15
f 69/82/15 71/85/16 72/83/18
f 73/84/17 74/87/17 72/83/18
f 75/86/5 76/89/5 74/87/17
f 77/88/19 78/91/19 76/89/5
f 79/90/20 80/93/22 78/91/19
f 81/92/21 82/95/21 80/93/22
f 83/94/8 84/97/8 82/95/21
f 85/96/23 86/99/23 84/97/8
f 87/98/24 88/101/24 86/99/23
f 89/100/25 90/103/25 88/101/24
f 91/102/26 92/200/26 90/103/25
f 97/104/27 94/37/9 96/36/7
f 120/106/28 96/32/7 95/34/4
f 4/108/8 94/201/9 93/109/2
f 6/111/29 115/114/30 108/112/4
f 115/114/30 116/116/31 107/115/4
f 116/116/31 117/118/32 106/117/4
f 117/118/32 118/120/33 105/119/4
f 118/120/33 119/122/34 104/121/4
f 119/122/34 120/106/28 103/107/4
f 8/123/6 102/126/35 115/124/30
f 102/126/35 101/128/36 116/127/31
f 101/128/36 100/130/37 117/129/32
f 100/130/37 99/132/38 118/131/33
f 99/132/38 98/134/39 119/133/34
f 98/134/39 97/104/27 120/105/28
f 93/109/2 94/201/9 97/135/27
f 114/136/2 97/135/27 98/137/39
f 113/138/2 98/137/39 99/139/38
f 112/140/2 99/139/38 100/141/37
f 111/142/2 100/141/37 101/143/36
f 110/144/2 101/143/36 102/145/35
f 145/146/2 138/196/35 128/147/6
f 132/149/7 122/202/14 121/150/4
f 124/152/8 122/203/14 132/153/7
f 133/155/27 130/154/9 132/153/7
f 156/157/28 132/149/7 131/151/4
f 124/159/8 130/204/9 129/160/2
f 126/162/29 151/165/30 144/163/4
f 151/165/30 152/167/31 143/166/4
f 152/167/31 153/169/32 142/168/4
f 153/169/32 154/171/33 141/170/4
f 154/171/33 155/173/34 140/172/4
f 155/173/34 156/157/28 139/158/4
f 128/174/6 138/177/35 151/175/30
f 138/177/35 137/179/36 152/178/31
f 137/179/36 136/181/37 153/180/32
f 136/181/37 135/183/38 154/182/33
f 135/183/38 134/185/39 155/184/34
f 134/185/39 133/155/27 156/156/28
f 129/160/2 130/204/9 133/186/27
f 150/187/2 133/186/27 134/188/39
f 149/189/2 134/188/39 135/190/38
f 148/191/2 135/190/38 136/192/37
f 147/193/2 136/192/37 137/194/36
f 146/195/2 137/194/36 138/196/35
