# Blender v2.79 (sub 0) OBJ File: 'bowling_backstop.blend'
# www.blender.org
v 36.000000 0.000000 3.500000
v 36.000000 7.000000 3.500000
v 35.000000 0.000000 3.500000
v 35.000000 7.000000 3.500000
v 36.000000 0.000000 -3.500000
v 36.000000 7.000000 -3.500000
v 35.000000 0.000000 -3.500000
v 35.000000 7.000000 -3.500000
v 35.000000 2.000000 3.500000
v 35.000000 7.000000 3.500000
v 24.000000 2.000000 3.500000
v 24.000000 7.000000 3.500000
v 35.000000 2.000000 -3.500000
v 35.000000 7.000000 -3.500000
v 24.000000 2.000000 -3.500000
v 24.000000 7.000000 -3.500000
v 35.000015 1.000000 3.500000
v 35.000015 2.000000 3.500000
v 22.500013 1.000000 3.499999
v 24.000015 2.000000 3.500000
v 34.999989 1.000000 2.520000
v 34.999989 2.000000 2.520000
v 22.499987 1.000000 2.519999
v 23.999989 2.000000 2.520000
v 35.000015 1.000000 -2.520000
v 35.000015 2.000000 -2.520000
v 22.500013 1.000000 -2.520001
v 24.000015 2.000000 -2.520000
v 34.999989 1.000000 -3.500000
v 34.999989 2.000000 -3.500000
v 22.499987 1.000000 -3.500001
v 23.999989 2.000000 -3.500000
vt 0.978523 0.981145
vt 0.924856 0.605473
vt 0.978523 0.605473
vt 0.979522 0.119404
vt 0.915305 0.055187
vt 0.979522 0.055187
vt 0.924856 0.981145
vt 0.978523 0.605473
vt 0.924856 0.605473
vt 0.025824 0.692945
vt 0.211251 0.666455
vt 0.211251 0.692945
vt 0.924856 0.981145
vt 0.334515 0.712808
vt 0.924856 0.712808
vt 0.900648 0.643320
vt -0.000000 -0.000000
vt 0.900648 -0.000000
vt 0.334515 0.981145
vt 0.924856 0.712808
vt 0.334515 0.712808
vt 0.940729 0.116285
vt 0.949903 0.015372
vt 0.940729 0.001611
vt 0.976055 0.014821
vt 0.911838 0.115734
vt 0.911838 0.014821
vt 0.025824 0.984331
vt 0.211251 0.692945
vt 0.211251 0.984331
vt 0.924857 0.659141
vt 0.334516 0.712808
vt 0.254015 0.659141
vt 0.229387 0.939863
vt 0.315855 0.783890
vt 0.315855 0.939865
vt 0.949903 0.015372
vt 0.940729 0.116285
vt 0.940729 0.001611
vt 0.229387 0.939863
vt 0.315855 0.783890
vt 0.315855 0.939865
vt 0.334515 0.712808
vt 0.924855 0.659141
vt 0.254014 0.659141
vt 0.924856 0.981145
vt 0.915305 0.119404
vt 0.978523 0.981145
vt 0.025824 0.666455
vt 0.334515 0.981145
vt -0.000000 0.643320
vt 0.924856 0.981145
vt 0.949903 0.116285
vt 0.976055 0.115734
vt 0.025824 0.692945
vt 0.924857 0.712808
vt 0.229387 0.783888
vt 0.949903 0.116285
vt 0.229387 0.783888
vt 0.924855 0.712808
vn 0.0000 0.0000 1.0000
vn -1.0000 0.0000 0.0000
vn 0.0000 0.0000 -1.0000
vn 0.0000 1.0000 0.0000
vn 0.0000 -1.0000 0.0000
vn -0.5547 0.8320 0.0000
vn -0.5547 0.8321 0.0000
s off
f 2/1/1 3/2/1 1/3/1
f 4/4/2 7/5/2 3/6/2
f 8/7/3 5/8/3 7/9/3
f 4/10/4 6/11/4 8/12/4
f 10/13/1 11/14/1 9/15/1
f 12/16/2 15/17/2 11/18/2
f 16/19/3 13/20/3 15/21/3
f 25/22/1 28/23/1 27/24/1
f 15/25/5 9/26/5 11/27/5
f 12/28/4 14/29/4 16/30/4
f 17/31/1 20/32/1 19/33/1
f 19/34/6 24/35/6 23/36/6
f 24/37/3 21/38/3 23/39/3
f 27/40/6 32/41/6 31/42/6
f 32/43/3 29/44/3 31/45/3
f 2/1/1 4/46/1 3/2/1
f 4/4/2 8/47/2 7/5/2
f 8/7/3 6/48/3 5/8/3
f 4/10/4 2/49/4 6/11/4
f 10/13/1 12/50/1 11/14/1
f 12/16/2 16/51/2 15/17/2
f 16/19/3 14/52/3 13/20/3
f 25/22/1 26/53/1 28/23/1
f 15/25/5 13/54/5 9/26/5
f 12/28/4 10/55/4 14/29/4
f 17/31/1 18/56/1 20/32/1
f 19/34/7 20/57/7 24/35/7
f 24/37/3 22/58/3 21/38/3
f 27/40/7 28/59/7 32/41/7
f 32/43/3 30/60/3 29/44/3
